<svg width="85" height="141" viewBox="0 0 85 141" fill="none" xmlns="http://www.w3.org/2000/svg">
<path d="M82.2 110C80.7333 115.867 77.8 120.933 73.4 125.2C69.1333 129.333 64.0667 132.4 58.2 134.4C52.3333 136.4 45.9333 137.267 39 137C32.2 136.867 25.3333 135.467 18.4 132.8C17.0667 133.067 15.9333 133.6 15 134.4C14.0667 135.067 13.2 135.867 12.4 136.8C11.2 138 10 138.867 8.8 139.4C7.6 140.067 5.93333 139.533 3.8 137.8C2.33333 135.4 1.33333 132.267 0.800001 128.4C0.266668 124.4 0.0666676 120.2 0.200001 115.8C0.466667 111.267 1 107.067 1.8 103.2C2.6 99.2 3.6 96.0667 4.8 93.8C7.86667 94.8667 9.93334 96.6 11 99C12.0667 101.267 12.8667 103.8 13.4 106.6C14.0667 109.533 14.6667 112.467 15.2 115.4C15.8667 118.2 17.2667 120.733 19.4 123C21.6667 125.267 24.4 126.933 27.6 128C30.8 128.933 34.1333 129.4 37.6 129.4C42 129.267 46.3333 128.467 50.6 127C55 125.4 58.8 123.333 62 120.8C65.3333 118.133 67.4667 115.133 68.4 111.8C69.2 106.067 69 101.467 67.8 98C66.6 94.5333 64.7333 91.6667 62.2 89.4C59.1333 86.4667 55.3333 84.1333 50.8 82.4C46.4 80.5333 42 78.3333 37.6 75.8C35.8667 74.7333 34.2667 73.4667 32.8 72C31.4667 70.5333 29.9333 69.3333 28.2 68.4C26.3333 67.3333 24.3333 66.4667 22.2 65.8C20.2 65.1333 18.4667 64.3333 17 63.4C13.9333 61.4 11.2667 58.8 9 55.6C6.86667 52.4 5.26667 48.9333 4.2 45.2C3.66667 43.3333 3.26667 41.4 3 39.4C2.73333 37.4 2.6 35.3333 2.6 33.2C2.6 28.9333 3.26667 24.7333 4.6 20.6C6.06667 16.4667 8.26667 12.7333 11.2 9.4C16.4 7 22.2667 5.13333 28.8 3.8C35.3333 2.46667 42 1.93333 48.8 2.19999C55.6 2.33333 61.9333 3.66666 67.8 6.19999C68.3333 5.93333 68.8 5.59999 69.2 5.19999C69.6 4.8 69.9333 4.33333 70.2 3.8C71 2.86666 71.8 2.13332 72.6 1.59999C73.5333 0.933324 74.8667 1.13333 76.6 2.19999C77.4 5.39999 77.8667 9.39999 78 14.2C78.2667 18.8667 78.1333 23.4667 77.6 28C77.2 32.4 76.3333 35.7333 75 38C72.2 37.8667 70.2 36.9333 69 35.2C67.9333 33.3333 67.2667 31.0667 67 28.4C66.8667 25.7333 66.8 22.9333 66.8 20C66.8 19.7333 66.8 19.5333 66.8 19.4C63.7333 16.6 59.8 14.4667 55 13C50.2 11.4 45.2667 10.6 40.2 10.6C36.2 10.6 32.4 11.2 28.8 12.4C25.3333 13.4667 22.4667 15.2 20.2 17.6C18.3333 19.6 17 22 16.2 24.8C15.4 27.6 15.4 30.9333 16.2 34.8C16.4667 36.2667 17.1333 37.9333 18.2 39.8C19.4 41.5333 20.5333 42.9333 21.6 44L22.8 45.2C26 48.1333 29.9333 50.8667 34.6 53.4C39.4 55.9333 44.4667 58.5333 49.8 61.2C55.1333 63.7333 60.1333 66.6 64.8 69.8C69.2 72.7333 73 76.0667 76.2 79.8C79.4 83.5333 81.6 87.8667 82.8 92.8C84.1333 97.7333 83.9333 103.467 82.2 110Z" fill="#04C700"/>
</svg>
